<?xml version="1.0" encoding="utf-8"?>
<!-- Generator: Adobe Illustrator 17.1.0, SVG Export Plug-In . SVG Version: 6.00 Build 0)  -->
<!DOCTYPE svg PUBLIC "-//W3C//DTD SVG 1.1//EN" "http://www.w3.org/Graphics/SVG/1.1/DTD/svg11.dtd">
<svg version="1.1" id="Layer_1" xmlns="http://www.w3.org/2000/svg" xmlns:xlink="http://www.w3.org/1999/xlink" x="0px" y="0px"
	 viewBox="9.291 9.264 373.714 176.899" enable-background="new 9.291 9.264 373.714 176.899" xml:space="preserve">
<g>
	<g>
		<path d="M225.572,32.725v32.148h-8.893V32.725h-11.286V25.03h31.463v7.695C236.856,32.725,225.572,32.725,225.572,32.725z"/>
		<path d="M250.765,48.343v16.53h-8.55V22.579h8.55v15.048c2.584-2.622,5.481-3.933,8.692-3.933s5.919,1.14,8.123,3.42
			c2.203,2.28,3.306,5.32,3.306,9.12v18.639h-8.55V48.115c0-4.711-1.729-7.068-5.187-7.068c-1.71,0-3.202,0.618-4.475,1.853
			C251.401,44.135,250.765,45.949,250.765,48.343z"/>
		<path d="M304.687,64.873h-8.038v-3.705c-2.204,2.774-4.93,4.161-8.179,4.161s-5.977-0.94-8.18-2.822
			c-2.204-1.881-3.307-4.389-3.307-7.524c0-3.135,1.141-5.481,3.421-7.04c2.279-1.558,5.395-2.337,9.348-2.337h6.384v-0.171
			c0-3.268-1.729-4.902-5.187-4.902c-1.482,0-3.05,0.294-4.703,0.883c-1.652,0.59-3.049,1.321-4.189,2.194l-3.818-5.529
			c4.027-2.926,8.625-4.389,13.794-4.389c3.724,0,6.763,0.932,9.12,2.793c2.356,1.862,3.534,4.808,3.534,8.835V64.873z
			 M296.08,53.188v-1.482h-5.358c-3.42,0-5.13,1.064-5.13,3.192c0,1.103,0.408,1.948,1.226,2.537
			c0.816,0.589,1.985,0.883,3.506,0.883c1.519,0,2.858-0.465,4.019-1.396C295.5,55.991,296.08,54.746,296.08,53.188z"/>
		<path d="M322.357,40.363V54.1c0,1.178,0.304,2.1,0.912,2.765c0.607,0.665,1.33,0.997,2.166,0.997c1.596,0,2.944-0.721,4.047-2.166
			l3.192,5.985c-2.661,2.432-5.464,3.648-8.408,3.648c-2.945,0-5.435-0.969-7.467-2.907c-2.033-1.938-3.05-4.579-3.05-7.923V40.363
			h-3.591v-6.156h3.591V25.03h8.607v9.177h7.41v6.156H322.357z"/>
		<path d="M244.381,94.793l-10.773,21.774h-5.301l-10.716-21.774v25.08h-8.892V80.03h12.027l10.261,21.888l10.316-21.888h11.97
			v39.843h-8.892L244.381,94.793L244.381,94.793z"/>
		<path d="M288.271,119.873h-8.037v-3.705c-2.204,2.774-4.93,4.161-8.179,4.161s-5.977-0.94-8.18-2.822
			c-2.204-1.881-3.307-4.389-3.307-7.524s1.141-5.481,3.421-7.04c2.279-1.558,5.395-2.337,9.348-2.337h6.384v-0.171
			c0-3.268-1.729-4.902-5.187-4.902c-1.482,0-3.05,0.294-4.703,0.883c-1.652,0.59-3.049,1.321-4.189,2.194l-3.818-5.529
			c4.027-2.926,8.625-4.389,13.794-4.389c3.724,0,6.763,0.932,9.119,2.793c2.356,1.862,3.534,4.808,3.534,8.835V119.873z
			 M279.665,108.188v-1.482h-5.358c-3.42,0-5.13,1.064-5.13,3.192c0,1.103,0.408,1.948,1.226,2.537
			c0.816,0.589,1.985,0.883,3.506,0.883c1.519,0,2.858-0.465,4.019-1.396C279.084,110.991,279.665,109.746,279.665,108.188z"/>
		<path d="M304.63,119.873h-8.55V77.579h8.55v21.717l9.52-10.146h10.772l-11.685,12.426l12.141,18.297h-10.146l-7.81-11.742
			l-2.793,2.907v8.835H304.63z"/>
		<path d="M356.557,115.427c-3.459,3.269-7.516,4.902-12.17,4.902c-4.655,0-8.503-1.434-11.542-4.304
			c-3.041-2.869-4.561-6.716-4.561-11.542c0-4.825,1.548-8.664,4.646-11.514c3.097-2.85,6.755-4.275,10.973-4.275
			s7.799,1.274,10.744,3.819c2.944,2.546,4.418,6.042,4.418,10.488v4.56h-22.344c0.265,1.672,1.14,3.041,2.621,4.104
			c1.482,1.064,3.154,1.596,5.017,1.596c3.001,0,5.472-1.006,7.41-3.021L356.557,115.427z M348.349,97.244
			c-1.179-0.988-2.613-1.482-4.304-1.482c-1.691,0-3.24,0.513-4.646,1.539s-2.224,2.414-2.451,4.161H350.4
			C350.21,99.638,349.525,98.232,348.349,97.244z"/>
		<path d="M381.351,96.731c-2.546,0-4.445,0.903-5.7,2.708c-1.254,1.805-1.881,4.189-1.881,7.154v13.281h-8.55V89.207h8.55v4.047
			c1.102-1.254,2.479-2.317,4.133-3.192c1.653-0.874,3.335-1.33,5.045-1.368l0.057,8.037H381.351z"/>
		<path d="M218.019,142.981c-0.855,0.704-1.283,1.634-1.283,2.793c0,1.16,0.522,2.081,1.567,2.765s3.458,1.492,7.239,2.422
			c3.781,0.932,6.717,2.328,8.807,4.189c2.09,1.862,3.135,4.58,3.135,8.151c0,3.572-1.339,6.469-4.018,8.692
			c-2.68,2.223-6.204,3.334-10.574,3.334c-6.308,0-11.989-2.337-17.043-7.011l5.301-6.498c4.293,3.762,8.265,5.643,11.913,5.643
			c1.634,0,2.916-0.351,3.848-1.054c0.931-0.703,1.396-1.653,1.396-2.85s-0.494-2.146-1.481-2.85
			c-0.989-0.703-2.945-1.415-5.871-2.137c-4.637-1.102-8.028-2.537-10.175-4.304s-3.22-4.541-3.22-8.322
			c0-3.78,1.358-6.697,4.075-8.749c2.716-2.052,6.108-3.078,10.174-3.078c2.66,0,5.32,0.456,7.98,1.368
			c2.659,0.912,4.978,2.205,6.954,3.876l-4.503,6.498c-3.459-2.622-7.031-3.933-10.717-3.933
			C220.042,141.927,218.874,142.279,218.019,142.981z"/>
		<path d="M252.759,158.343v16.53h-8.55v-42.294h8.55v15.048c2.584-2.622,5.481-3.933,8.692-3.933s5.919,1.14,8.123,3.42
			c2.203,2.28,3.306,5.32,3.306,9.12v18.639h-8.55v-16.758c0-4.711-1.729-7.068-5.187-7.068c-1.71,0-3.202,0.618-4.475,1.853
			C253.395,154.135,252.759,155.949,252.759,158.343z"/>
		<path d="M311.299,159.54c0,4.446-1.539,8.189-4.617,11.229c-3.078,3.041-6.944,4.56-11.6,4.56c-4.655,0-8.521-1.52-11.599-4.56
			s-4.617-6.783-4.617-11.229s1.539-8.198,4.617-11.257c3.077-3.059,6.943-4.589,11.599-4.589s8.522,1.53,11.6,4.589
			S311.299,155.094,311.299,159.54z M287.472,159.54c0,2.508,0.713,4.551,2.138,6.127c1.425,1.577,3.249,2.366,5.472,2.366
			c2.224,0,4.048-0.789,5.473-2.366c1.425-1.576,2.138-3.62,2.138-6.127s-0.713-4.56-2.138-6.156
			c-1.425-1.596-3.25-2.394-5.473-2.394s-4.047,0.798-5.472,2.394C288.185,154.98,287.472,157.032,287.472,159.54z"/>
		<path d="M333.015,174.873h-8.835l-10.431-30.666h8.835l5.984,18.525l5.985-18.525h8.265l5.985,18.525l5.985-18.525h8.892
			l-10.431,30.666h-8.893l-5.643-16.701L333.015,174.873z"/>
	</g>
	<g>
		<path fill="#FF2517" d="M93.701,9.313c-2.007,0.338-3.607,1.869-4.025,3.857c-0.092,0.331-0.147,0.668-0.168,1.006L84.98,30.613
			c-1.837,0.345-3.736,0.694-5.534,1.175c-2.161,0.583-4.154,1.423-6.206,2.181L59.32,21.556c-1.564-1.415-3.855-1.685-5.703-0.67
			c-5.713,3.233-11.002,7.099-15.765,11.405c-1.587,1.446-2.064,3.75-1.175,5.703l7.884,16.772
			c-2.558,3.088-4.879,6.403-6.876,9.896l-18.784-0.671c-2.186-0.078-4.161,1.288-4.865,3.355
			c-2.268,6.046-3.789,12.321-4.696,18.784c-0.308,2.176,0.852,4.293,2.85,5.2l16.605,7.714c0.05,3.963,0.418,7.935,1.175,11.909
			l-14.759,11.74c-1.694,1.295-2.365,3.522-1.678,5.534c2.209,6.241,5.18,11.887,8.553,17.275c1.132,1.809,3.293,2.684,5.368,2.181
			l17.778-4.696c2.601,3.019,5.517,5.722,8.555,8.218l-3.859,18.618c-0.395,2.055,0.546,4.14,2.349,5.2
			c5.566,3.277,11.572,6.038,17.778,8.05c2.05,0.655,4.287-0.094,5.534-1.844l10.564-15.099c3.96,0.661,7.993,0.88,12.075,0.84
			l8.718,16.603c1.017,1.867,3.109,2.882,5.201,2.516c2.735-0.466,5.444-0.932,8.218-1.676c3.584-0.958,7.053-2.17,10.397-3.522
			c2.066-0.776,3.364-2.831,3.187-5.031l-1.846-20.967c-0.232-2.73-2.631-4.76-5.366-4.528c-2.732,0.23-4.76,2.631-4.53,5.366l0,0
			l1.511,17.106c-1.951,0.693-3.848,1.472-5.869,2.013c-1.281,0.345-2.585,0.565-3.859,0.84l-8.385-15.765
			c-0.942-1.676-2.773-2.663-4.696-2.516c-5.497,0.331-10.874-0.188-16.097-1.341c-1.984-0.462-4.046,0.335-5.2,2.013l-9.894,14.088
			c-3.169-1.201-6.232-2.594-9.225-4.192l3.522-17.275c0.354-1.841-0.36-3.722-1.844-4.865c-4.353-3.228-8.247-7.092-11.572-11.405
			c-1.24-1.55-3.286-2.211-5.2-1.676l-16.435,4.36c-1.688-2.955-3.226-6.016-4.528-9.225l13.753-10.901
			c1.486-1.212,2.138-3.171,1.678-5.031c-1.297-5.462-1.899-10.828-1.678-16.1c0.018-1.936-1.098-3.706-2.85-4.528l-15.429-7.38
			c0.629-3.361,1.63-6.665,2.684-9.894l17.443,0.503c1.899,0.05,3.658-0.994,4.528-2.684c2.416-4.806,5.54-9.375,9.225-13.418
			c1.323-1.463,1.653-3.57,0.838-5.366l-7.212-15.431c2.657-2.199,5.425-4.184,8.385-6.038l12.915,11.572
			c1.463,1.327,3.57,1.656,5.368,0.84c2.599-1.111,5.2-1.919,8.05-2.684c2.521-0.673,5.093-1.35,7.547-1.678
			c1.915-0.283,3.488-1.662,4.025-3.522l4.528-16.603c3.382,0.055,6.711,0.184,10.061,0.67l2.516,17.443
			c0.289,1.917,1.665,3.49,3.522,4.025c5.184,1.557,10.167,3.798,14.759,6.709c1.676,1.13,3.862,1.13,5.534,0l13.919-9.894
			c2.631,2.227,5.069,4.666,7.379,7.212l-9.055,14.759c-1.054,1.635-1.054,3.735,0,5.368c2.923,4.445,5.355,9.29,7.044,14.591
			c0.565,1.913,2.218,3.299,4.193,3.522l16.94,1.341c0.57,3.423,1.054,6.84,1.173,10.231l-16.603,5.536
			c-1.844,0.618-3.153,2.257-3.355,4.192c-0.632,5.435-2.138,10.798-4.192,15.765c-0.723,1.865-0.262,3.983,1.173,5.366
			l14.927,14.927c1.951,1.951,5.1,1.951,7.046,0c1.951-1.945,1.951-5.095,0-7.046l-13.083-12.913
			c1.353-3.797,2.349-7.731,3.019-11.74l17.778-5.869c2.025-0.609,3.433-2.422,3.522-4.53c0.057-6.383-0.629-12.984-2.013-19.454
			c-0.462-2.094-2.223-3.653-4.362-3.857L161.79,74.22c-1.431-3.8-3.185-7.327-5.2-10.734l9.896-16.1
			c1.111-1.779,0.974-4.062-0.335-5.703c-4.176-5.053-9.016-9.471-14.088-13.416c-1.71-1.334-4.089-1.403-5.869-0.165
			l-15.096,10.564c-3.423-1.935-7.001-3.69-10.734-5.031l-2.684-18.616c-0.294-2.121-1.919-3.812-4.025-4.193
			c-6.247-1.159-12.83-1.75-19.452-1.509C94.036,9.305,93.869,9.305,93.701,9.313z"/>
		<path fill="#FF2517" d="M102.252,66.671c-4.255-0.597-8.681-0.505-13.08,0.671C71.576,72.06,61.144,90.336,65.86,107.93
			c4.714,17.601,22.823,28.198,40.417,23.481c2.673-0.565,4.386-3.187,3.825-5.86c-0.565-2.679-3.198-4.386-5.869-3.825
			c-0.158,0.037-0.315,0.078-0.473,0.126c-12.415,3.327-25.015-4.021-28.34-16.437c-3.329-12.41,4.018-25.183,16.435-28.512
			c12.419-3.325,25.018,4.023,28.342,16.437c1.614,6.006,0.744,12.043-2.013,17.106c-1.343,2.411-0.478,5.451,1.927,6.794
			c2.411,1.341,5.451,0.48,6.794-1.929c3.926-7.196,5.134-15.973,2.85-24.487C126.225,77.627,115.029,68.469,102.252,66.671z"/>
	</g>
</g>
</svg>
